<svg width="1451" height="565" viewBox="0 0 1451 565" fill="none" xmlns="http://www.w3.org/2000/svg">
<path d="M769 258.703C833.5 229.186 780.5 78.7032 863.5 49.2032C946.5 19.7032 1044.5 162.203 1119 162.203C1198.68 162.203 1186 79.6034 1223.5 8.10344C1291.75 -82.3967 1321.5 -84.3965 1389.5 -87.8966C1457.5 -91.3967 1592.5 -4.89656 1592.5 -4.89656C1592.5 -4.89656 1525.7 -25.3528 1452.5 179.604C1410 298.604 1298.17 348.831 1206.5 347.604C1104.37 346.237 1055.87 203.533 960.499 240.104C862.769 277.579 938.557 415.807 852.999 476.102C774.097 531.708 690.869 341.277 600.5 375.203C529.518 401.851 530.816 535.972 482 542.487C385.5 555.368 366.999 362.603 261.999 397.103C171.93 426.698 216 554.897 118.5 563.602C21 572.308 0 462.102 0 462.102C0 462.102 45.5 557.602 112 531.102C178.5 504.602 135.499 318.203 231.999 287.703C328.499 257.203 364 409.703 441 375.203C497.775 349.765 432.5 210.203 524 171.703C609.867 135.574 663 307.212 769 258.703Z" fill="#0094FF"/>
<path d="M797.5 250.6C862 221.083 809 70.5997 892 41.0997C975 11.5997 1073 154.1 1147.5 154.1C1227.18 154.1 1214.5 71.4999 1252 -7.62939e-05C1320.25 -90.5002 1350 -92.5 1418 -96.0001C1486 -99.5002 1621 -13.0001 1621 -13.0001C1621 -13.0001 1554.2 -33.4563 1481 171.5C1438.5 290.5 1326.67 340.727 1235 339.5C1132.87 338.133 1084.37 195.429 988.999 232C891.269 269.476 967.057 407.703 881.499 467.999C802.597 523.604 719.369 333.174 629 367.1C558.018 393.748 559.316 527.868 510.5 534.384C414 547.264 395.499 354.5 290.499 389C200.43 418.594 244.5 546.794 147 555.499C49.5 564.204 28.5 453.999 28.5 453.999C28.5 453.999 74 549.499 140.5 522.999C207 496.499 163.999 310.1 260.499 279.6C356.999 249.1 392.5 401.6 469.5 367.1C526.275 341.662 461 202.1 552.5 163.6C638.367 127.47 691.5 299.108 797.5 250.6Z" fill="#FF5C00"/>
</svg>
