<svg width="140" height="140" viewBox="0 0 140 140" fill="none" xmlns="http://www.w3.org/2000/svg">
<path d="M15 0.5H139.5V139.5H15C6.99187 139.5 0.5 133.008 0.5 125V15C0.5 6.99187 6.99187 0.5 15 0.5Z" fill="#E4E4E4" stroke="#E4E4E4"/>
<mask id="mask0_15_10" style="mask-type:alpha" maskUnits="userSpaceOnUse" x="0" y="0" width="140" height="140">
<path d="M15 0.5H139.5V139.5H15C6.99187 139.5 0.5 133.008 0.5 125V15C0.5 6.99187 6.99187 0.5 15 0.5Z" fill="white" stroke="#E4E4E4"/>
</mask>
<g mask="url(#mask0_15_10)">
<rect x="10.5945" y="68.3246" width="110.895" height="132.272" rx="10.5" transform="rotate(-30 10.5945 68.3246)" fill="#EFEDED" stroke="#E4E4E4"/>
<path d="M34.744 77.2974C36.4637 76.1557 37.6786 74.3592 39.1305 72.9307C41.4188 70.6792 43.7554 68.4065 46.4344 66.5773C48.1984 65.3728 50.7158 68.216 53.0664 67.0617C55.2791 65.9751 57.6459 64.6135 59.567 63.0868C62.1315 61.0488 63.8452 58.4583 66.0847 56.1795C68.2548 53.9713 69.0811 54.251 71.8724 54.0473C76.0153 53.745 79.0184 49.7635 81.6053 46.9768C84.0691 44.3227 84.4807 43.6651 87.6627 44.8502C90.0433 45.7368 91.53 46.0354 93.6504 44.2956C95.1689 43.0497 96.7242 41.3608 98.0622 39.9344C98.7317 39.2208 99.0511 38.3557 99.9246 37.8514" stroke="#E4E4E4" stroke-width="3" stroke-linecap="round"/>
<path d="M42.7274 91.1251C44.4471 89.9834 45.662 88.1869 47.1139 86.7584C49.4022 84.5068 51.7388 82.2341 54.4178 80.4049C56.1818 79.2005 58.6993 82.0436 61.0498 80.8893C63.2625 79.8027 65.6293 78.4412 67.5504 76.9145C70.1149 74.8765 71.8286 72.2859 74.0682 70.0071C76.2383 67.799 77.0645 68.0787 79.8558 67.875C83.9987 67.5727 87.0019 63.5911 89.5887 60.8044C92.0525 58.1504 92.4641 57.4927 95.6461 58.6778C98.0267 59.5645 99.5135 59.863 101.634 58.1233C103.152 56.8773 104.708 55.1884 106.046 53.7621C106.715 53.0484 107.035 52.1833 107.908 51.679" stroke="#E4E4E4" stroke-width="3" stroke-linecap="round"/>
<path d="M50.7108 104.953C52.4305 103.811 53.6454 102.015 55.0973 100.586C57.3856 98.3346 59.7222 96.0619 62.4012 94.2327C64.1652 93.0282 66.6827 95.8713 69.0332 94.7171C71.2459 93.6305 73.6127 92.2689 75.5338 90.7422C78.0983 88.7042 79.812 86.1137 82.0516 83.8349C84.2217 81.6267 85.0479 81.9064 87.8392 81.7027C91.9821 81.4004 94.9853 77.4189 97.5721 74.6322C100.036 71.9781 100.447 71.3205 103.629 72.5056C106.01 73.3922 107.497 73.6908 109.617 71.951C111.136 70.7051 112.691 69.0162 114.029 67.5898C114.699 66.8762 115.018 66.0111 115.891 65.5068" stroke="#E4E4E4" stroke-width="3" stroke-linecap="round"/>
<path d="M58.6944 118.781C60.414 117.639 61.629 115.842 63.0808 114.414C65.3692 112.162 67.7057 109.89 70.3848 108.06C72.1487 106.856 74.6662 109.699 77.0167 108.545C79.2294 107.458 81.5962 106.097 83.5173 104.57C86.0818 102.532 87.7956 99.9413 90.0351 97.6625C92.2052 95.4544 93.0315 95.7341 95.8227 95.5304C99.9656 95.2281 102.969 91.2466 105.556 88.4599C108.019 85.8058 108.431 85.1481 111.613 86.3333C113.994 87.2199 115.48 87.5185 117.601 85.7787C119.119 84.5327 120.675 82.8439 122.013 81.4175C122.682 80.7038 123.001 79.8388 123.875 79.3344" stroke="#E4E4E4" stroke-width="3" stroke-linecap="round"/>
<path d="M66.6778 132.608C68.3974 131.466 69.6124 129.67 71.0642 128.242C73.3526 125.99 75.6891 123.717 78.3682 121.888C80.1321 120.684 82.6496 123.527 85.0001 122.372C87.2128 121.286 89.5796 119.924 91.5007 118.398C94.0652 116.36 95.779 113.769 98.0185 111.49C100.189 109.282 101.015 109.562 103.806 109.358C107.949 109.056 110.952 105.074 113.539 102.288C116.003 99.6335 116.414 98.9758 119.596 100.161C121.977 101.048 123.464 101.346 125.584 99.6064C127.103 98.3604 128.658 96.6716 129.996 95.2452C130.665 94.5315 130.985 93.6665 131.858 93.1621" stroke="#E4E4E4" stroke-width="3" stroke-linecap="round"/>
<path d="M74.6612 146.436C76.3808 145.294 77.5958 143.498 79.0476 142.069C81.336 139.818 83.6725 137.545 86.3516 135.716C88.1156 134.511 90.633 137.354 92.9836 136.2C95.1962 135.114 97.5631 133.752 99.4842 132.225C102.049 130.187 103.762 127.597 106.002 125.318C108.172 123.11 108.998 123.389 111.79 123.186C115.932 122.884 118.936 118.902 121.522 116.115C123.986 113.461 124.398 112.804 127.58 113.989C129.96 114.875 131.447 115.174 133.568 113.434C135.086 112.188 136.641 110.499 137.979 109.073C138.649 108.359 138.968 107.494 139.842 106.99" stroke="#E4E4E4" stroke-width="3" stroke-linecap="round"/>
<path d="M82.6446 160.264C84.3642 159.122 85.5792 157.325 87.031 155.897C89.3194 153.645 91.6559 151.373 94.335 149.543C96.0989 148.339 98.6164 151.182 100.967 150.028C103.18 148.941 105.546 147.58 107.468 146.053C110.032 144.015 111.746 141.424 113.985 139.146C116.155 136.938 116.982 137.217 119.773 137.014C123.916 136.711 126.919 132.73 129.506 129.943C131.97 127.289 132.381 126.631 135.563 127.816C137.944 128.703 139.431 129.002 141.551 127.262C143.069 126.016 144.625 124.327 145.963 122.901C146.632 122.187 146.952 121.322 147.825 120.818" stroke="#E4E4E4" stroke-width="3" stroke-linecap="round"/>
</g>
</svg>
