<svg width="35" height="35" viewBox="0 0 35 35" fill="none" xmlns="http://www.w3.org/2000/svg">
<g id="Like">
<circle id="Ellipse 1" cx="17.5" cy="17.5" r="17.5" fill="#E4E4E4"/>
<g id="&#240;&#159;&#166;&#134; icon &#34;heart outline&#34;">
<path id="Vector" d="M17.5 27.171C17.3585 27.1719 17.2183 27.1448 17.0874 27.0913C16.9565 27.0378 16.8374 26.959 16.737 26.8594L8.38767 18.4993C7.34036 17.4411 6.7529 16.0123 6.7529 14.5235C6.7529 13.0346 7.34036 11.6058 8.38767 10.5476C9.44317 9.49506 10.8729 8.90401 12.3635 8.90401C13.8541 8.90401 15.2839 9.49506 16.3394 10.5476L17.5 11.7081L18.6605 10.5476C19.716 9.49506 21.1458 8.90401 22.6364 8.90401C24.127 8.90401 25.5567 9.49506 26.6122 10.5476C27.6595 11.6058 28.247 13.0346 28.247 14.5235C28.247 16.0123 27.6595 17.4411 26.6122 18.4993L18.2629 26.8594C18.1625 26.959 18.0434 27.0378 17.9125 27.0913C17.7816 27.1448 17.6414 27.1719 17.5 27.171ZM12.3635 11.0526C11.9087 11.0506 11.4579 11.1388 11.0373 11.3122C10.6168 11.4856 10.2348 11.7407 9.91355 12.0627C9.26458 12.7151 8.90027 13.5979 8.90027 14.5181C8.90027 15.4383 9.26458 16.3211 9.91355 16.9735L17.5 24.5706L25.0864 16.9735C25.7353 16.3211 26.0996 15.4383 26.0996 14.5181C26.0996 13.5979 25.7353 12.7151 25.0864 12.0627C24.4241 11.437 23.5475 11.0884 22.6364 11.0884C21.7252 11.0884 20.8486 11.437 20.1864 12.0627L18.2629 13.9969C18.163 14.0976 18.0441 14.1776 17.9132 14.2321C17.7823 14.2867 17.6418 14.3148 17.5 14.3148C17.3581 14.3148 17.2176 14.2867 17.0867 14.2321C16.9558 14.1776 16.8369 14.0976 16.737 13.9969L14.8135 12.0627C14.4923 11.7407 14.1103 11.4856 13.6898 11.3122C13.2692 11.1388 12.8184 11.0506 12.3635 11.0526Z" fill="#E61F1F"/>
</g>
</g>
</svg>
