<svg width="22" height="22" viewBox="0 0 22 22" fill="none" xmlns="http://www.w3.org/2000/svg">
<g id="Search">
<path id="Vector" d="M14.2083 12.8333H13.4841L13.2275 12.5858C14.3275 11.3025 14.8958 9.55166 14.5841 7.69083C14.1533 5.14249 12.0266 3.10749 9.45998 2.79583C5.58248 2.31916 2.31915 5.58249 2.79581 9.45999C3.10748 12.0267 5.14248 14.1533 7.69081 14.5842C9.55164 14.8958 11.3025 14.3275 12.5858 13.2275L12.8333 13.4842V14.2083L16.7291 18.1042C17.105 18.48 17.7191 18.48 18.095 18.1042C18.4708 17.7283 18.4708 17.1142 18.095 16.7383L14.2083 12.8333ZM8.70831 12.8333C6.42581 12.8333 4.58331 10.9908 4.58331 8.70833C4.58331 6.42583 6.42581 4.58333 8.70831 4.58333C10.9908 4.58333 12.8333 6.42583 12.8333 8.70833C12.8333 10.9908 10.9908 12.8333 8.70831 12.8333Z" fill="#323232"/>
</g>
</svg>
